<?xml version="1.0" encoding="utf-8"?>
<!-- Generator: Adobe Illustrator 25.0.1, SVG Export Plug-In . SVG Version: 6.00 Build 0)  -->
<svg version="1.0" id="Layer_1" xmlns="http://www.w3.org/2000/svg" xmlns:xlink="http://www.w3.org/1999/xlink" x="0px" y="0px"
	 viewBox="0 0 1032 683" style="enable-background:new 0 0 1032 683;" xml:space="preserve">
<style type="text/css">
	.st0{fill:#FF6153;}
	.st1{fill:#A03027;}
	.st2{fill:none;}
</style>
<path id="path2" class="st0" d="M377.3,123.3h-84.6l-28.9,180.4c-0.6,0.1-1.2,0.1-1.9,0.2c-63.9,8.5-113.6,62.3-113,122.5
	c0.2,25.2,8.8,44.8,24.2,60.9c13.5,14.3,32.3,22.4,52,22.5c7.6,0,15.1-1.2,22.2-3.7c34.5-11.9,45.9-40.8,51.3-67.3c0,0,0,0.1,0,0.1
	c1.5-29.5-14.2-58.7-44.3-76l-9.5,60.1c-3.1,17.1-7,27.3-15.6,30.2c-5.1,1.8-11.4-0.1-15.6-4.5c-5.5-5.7-8.7-12.1-8.8-22.9
	c-0.3-30.1,23.4-53.7,49.5-62.9c8.4-3,17.3-4.5,26.2-4.4c9.9,0.1,19.8,1.8,29.1,5c35.3,8.3,56.6,45.7,61.9,86.2l3.1,22.7h58.7
	L377.3,123.3z M317.1,307.6L334,178.5h2l18.8,144.1C342.9,316.1,330.2,311,317.1,307.6L317.1,307.6z M880,220.7v251.8h-58.5V220.7
	H880z M709.1,559.7c76.9,0,82.9-43.8,82.9-105.7l0.5-233.3h-30.4c-10.9,0-24.3,8.2-25.2,18.7l-0.7,8.1l-2.8-7.7
	c-5.7-15.2-19.9-23.3-41.1-23.3s-37.1,8.2-46.9,24.4c-9.5,15.7-11.5,36-11.5,50.3v97.9c0,24.3,3.5,42.2,10.8,54.7
	c8.9,15.2,23.2,22.6,43.9,22.6c19.6,0,34.4-8.3,41.7-23.4l3.5-7.2v36c0,24.7-1.5,42.1-21.2,42.1c-4.5,0-19.2-1.5-19.2-21.2v-0.7
	h-59.1v1.2c0,19.1,5.2,34.5,15.4,45.8C662.4,552.7,682.3,559.7,709.1,559.7L709.1,559.7z M732.9,379c0,24-3.4,37-21.2,37
	c-16.9,0-19.2-16.1-19.2-31.9v-87.7c0-19.8,7.1-29.4,21.7-29.4c16.4,0,18.7,16.1,18.7,31.9L732.9,379z M883.1,165.3
	c0,17.9-14.2,31.8-32.3,31.8c-17.4,0.2-31.6-13.8-31.8-31.2c0-0.2,0-0.4,0-0.7c0-18.1,14-32.3,31.8-32.3
	C868.6,133,883.1,147.5,883.1,165.3z M510.6,302v170.5h-59.1L451,220.7h32.8c11.3,0,24.3,8,25.7,19.8l0.6,5.4l2.8-4.7
	c9.5-16.3,25-24.6,45.9-24.6c33.6,0,50.7,21.7,50.7,64.5v191.4H551V294.3c0-18.1-6.3-27.3-18.7-27.3
	C516.3,267,510.6,276.2,510.6,302L510.6,302z"/>
<path id="path4" class="st1" d="M298.6,439c3-12.6,9.8-61.1,11-75.4c-9.4-3.2-19.2-4.9-29.1-5c-8.9-0.1-17.8,1.4-26.3,4.4
	C284.3,380.2,300.1,409.4,298.6,439L298.6,439z"/>
<rect x="116" y="99" class="st2" width="800" height="485"/>
</svg>
